<svg width="120" height="33" viewBox="0 0 120 33" fill="none" xmlns="http://www.w3.org/2000/svg">
  <path d="M20.663 9.46C21.646 8.736 23.003 8.586 24.046 9.597L25.428 10.701C26.297 11.559 27.522 11.904 28.607 11.646C29.747 11.384 30.339 10.242 30.105 9.173L28.646 6.607C28.526 6.272 28.477 5.914 28.5 5.557C28.601 3.804 29.618 2.19 31.091 1.074C32.566 -0.04 34.694 -0.063 36.3 1.251C37.732 2.44 38.393 4.391 38.231 6.316C38.053 8.406 37.423 10.383 36.282 12.167C34.754 14.844 31.65 16.513 28.135 17.419C26.957 17.745 25.666 17.975 24.452 17.863C22.684 17.722 20.979 16.518 20.571 14.896L20.633 12.542C20.709 11.279 21.845 10.263 23.195 10.087C23.287 10.06 23.379 10.066 23.466 10.106C24.281 10.293 25.036 10.682 25.653 11.189C26.265 11.686 26.771 12.253 27.141 12.892C27.271 13.073 27.435 13.233 27.621 13.351C28.225 14.07 29.035 14.703 29.888 15.113C30.874 15.593 31.936 15.894 33.025 15.894C34.036 15.894 34.93 15.483 35.569 14.723C36.103 14.042 36.674 13.403 37.258 12.865C37.708 12.438 38.107 12.001 38.531 11.583C39.609 10.647 40.629 9.381 40.999 8.325C41.369 7.268 41.733 6.171 41.936 5.039C42.057 4.275 42.096 3.503 42.054 2.736C41.973 1.511 41.53 0.329 40.821 -0.826C40.062 -1.861 38.95 -2.6 37.849 -2.877C36.861 -3.113 35.816 -2.997 34.897 -2.564C33.743 -1.98 32.855 -0.801 32.319 0.078C31.795 0.921 31.228 1.703 30.726 2.386C30.399 2.821 30.149 3.344 30.018 3.885C29.891 4.404 29.833 4.939 29.838 5.473C29.826 6.09 29.943 6.708 30.214 7.299C30.629 8.009 31.045 8.726 31.572 9.418C32.099 10.094 32.57 10.729 32.934 11.424C33.26 12.08 33.493 12.764 33.751 13.451C34.052 14.159 34.462 14.854 34.874 15.547C35.187 16.131 35.639 16.706 36.214 17.238C37.114 18.155 38.382 18.797 39.804 18.97C41.227 19.144 42.691 18.834 43.977 17.98C44.807 17.293 45.556 16.547 46.223 15.832C46.828 15.095 47.337 14.324 47.703 13.497C48.035 12.749 48.298 12.002 48.367 11.238C48.472 10.029 48.069 8.805 47.214 7.925C46.619 7.381 45.873 6.843 44.975 6.406C44.109 5.997 43.207 5.734 42.261 5.543C41.596 5.351 40.918 5.192 40.275 5.081C39.624 4.973 38.99 4.926 38.372 4.964C37.215 5.036 36.144 5.212 35.191 5.508C34.316 5.74 33.488 6.073 32.649 6.351C31.872 6.598 31.16 6.786 30.478 6.918C29.873 7.038 29.268 7.142 28.668 7.228C28.134 7.294 27.605 7.382 27.087 7.507C26.466 7.658 25.844 7.805 25.226 7.98C24.701 8.154 24.179 8.369 23.662 8.579C23.192 8.765 22.723 8.957 22.278 9.132C21.881 9.292 21.485 9.477 21.116 9.685C20.758 9.855 20.418 10.07 20.108 10.347C19.762 10.677 19.447 11.051 19.158 11.458C18.857 11.893 18.565 12.356 18.303 12.847C18.065 13.272 17.847 13.718 17.641 14.169C17.439 14.586 17.254 15.004 17.077 15.418C16.925 15.813 16.783 16.212 16.667 16.604C16.556 16.983 16.436 17.362 16.311 17.734C16.191 18.099 16.051 18.468 15.921 18.825C15.825 19.016 15.718 19.197 15.609 19.375C15.488 19.586 15.357 19.794 15.222 20.007C15.083 20.225 14.942 20.447 14.805 20.666C14.662 20.894 14.518 21.124 14.372 21.35C14.229 21.561 14.086 21.774 13.944 21.988C13.8 22.189 13.655 22.393 13.515 22.597C13.361 22.78 13.205 22.964 13.05 23.149C12.922 23.317 12.797 23.489 12.678 23.662C12.552 23.843 12.44 24.028 12.315 24.204C12.192 24.388 12.078 24.573 11.971 24.761C11.861 24.951 11.758 25.143 11.648 25.331C11.543 25.5 11.437 25.671 11.322 25.843C11.213 26.017 11.105 26.191 10.994 26.366C10.881 26.558 10.764 26.749 10.646 26.941C10.525 27.119 10.407 27.298 10.291 27.478C10.174 27.662 10.058 27.847 9.946 28.031C9.838 28.223 9.722 28.407 9.611 28.592C9.493 28.757 9.384 28.922 9.285 29.091C9.182 29.261 9.086 29.434 8.998 29.609C8.904 29.769 8.818 29.931 8.727 30.093C8.642 30.256 8.565 30.421 8.481 30.582C8.39 30.735 8.305 30.889 8.231 31.046C8.152 31.207 8.065 31.371 7.977 31.533C7.892 31.679 7.821 31.825 7.74 31.973C7.658 32.122 7.577 32.271 7.496 32.423C7.42 32.565 7.341 32.708 7.264 32.852C7.189 32.995 7.118 33.139 7.052 33.282C6.982 33.428 6.912 33.573 6.844 33.718C6.772 33.864 6.701 34.01 6.631 34.156C6.566 34.296 6.497 34.435 6.434 34.573C6.367 34.711 6.297 34.849 6.234 34.989C6.169 35.123 6.108 35.259 6.05 35.394C5.986 35.521 5.925 35.649 5.868 35.779C5.807 35.899 5.752 36.02 5.701 36.145C5.648 36.276 5.599 36.405 5.556 36.539C5.513 36.676 5.474 36.812 5.438 36.949C5.398 37.087 5.361 37.227 5.331 37.367C5.301 37.51 5.271 37.655 5.248 37.8C5.224 37.943 5.199 38.087 5.178 38.231C5.153 38.372 5.13 38.515 5.113 38.659C5.086 38.805 5.069 38.952 5.057 39.099C5.039 39.244 5.03 39.39 5.029 39.537C5.024 39.686 5.022 39.835 5.024 39.985C5.027 40.137 5.034 40.29 5.042 40.443C5.05 40.599 5.057 40.756 5.067 40.913C5.075 41.071 5.085 41.23 5.097 41.389C5.105 41.548 5.115 41.708 5.127 41.868C5.139 42.029 5.155 42.191 5.173 42.352C5.188 42.514 5.205 42.676 5.225 42.838C5.238 42.978 5.254 43.119 5.273 43.258C5.291 43.398 5.312 43.537 5.335 43.674C5.353 43.787 5.373 43.897 5.396 44.005C5.419 44.115 5.444 44.223 5.472 44.327C5.492 44.415 5.515 44.504 5.541 44.592C5.568 44.686 5.598 44.779 5.631 44.869C5.654 44.946 5.681 45.021 5.711 45.098C5.744 45.161 5.778 45.225 5.814 45.291C5.844 45.356 5.878 45.418 5.914 45.484C5.946 45.541 5.981 45.601 6.018 45.663C6.056 45.725 6.093 45.789 6.133 45.853C6.175 45.916 6.219 45.981 6.265 46.047C6.304 46.108 6.347 46.174 6.391 46.237C6.425 46.275 6.46 46.316 6.498 46.359C6.529 46.403 6.563 46.442 6.598 46.484C6.627 46.522 6.658 46.564 6.691 46.606C6.727 46.639 6.764 46.674 6.803 46.711C6.841 46.747 6.88 46.784 6.921 46.824C6.964 46.868 7.007 46.914 7.051 46.964C7.092 47.011 7.132 47.057 7.175 47.107C7.222 47.145 7.271 47.186 7.318 47.227C7.368 47.269 7.418 47.311 7.469 47.355C7.522 47.397 7.575 47.441 7.628 47.485C7.681 47.528 7.734 47.572 7.788 47.616C7.844 47.658 7.899 47.699 7.956 47.739C8.017 47.784 8.078 47.831 8.139 47.876C8.198 47.921 8.257 47.967 8.318 48.015C8.378 48.062 8.437 48.11 8.497 48.159C8.553 48.207 8.609 48.257 8.665 48.306C8.719 48.355 8.773 48.407 8.827 48.459C8.875 48.497 8.923 48.536 8.97 48.575C9.018 48.611 9.066 48.648 9.116 48.685C9.162 48.723 9.209 48.76 9.256 48.798C9.298 48.835 9.34 48.873 9.379 48.912C9.419 48.952 9.459 48.993 9.498 49.032C9.541 49.066 9.584 49.097 9.625 49.126C9.669 49.157 9.712 49.186 9.754 49.213C9.799 49.241 9.844 49.263 9.889 49.284C9.929 49.307 9.968 49.329 10.008 49.351C10.048 49.373 10.089 49.394 10.129 49.414C10.161 49.434 10.192 49.452 10.225 49.469C10.255 49.487 10.285 49.504 10.315 49.521C10.345 49.538 10.376 49.553 10.405 49.566C10.432 49.578 10.459 49.591 10.485 49.605C10.508 49.617 10.532 49.629 10.553 49.641C10.575 49.653 10.595 49.664 10.616 49.673C10.637 49.683 10.658 49.692 10.679 49.701C10.697 49.708 10.716 49.715 10.736 49.722C10.757 49.728 10.779 49.733 10.802 49.738C10.827 49.741 10.852 49.743 10.878 49.746C10.901 49.748 10.924 49.749 10.948 49.751C10.973 49.751 10.999 49.751 11.024 49.752C11.043 49.751 11.063 49.751 11.083 49.751C11.105 49.75 11.128 49.749 11.152 49.749C11.177 49.748 11.203 49.748 11.229 49.748C11.257 49.748 11.287 49.748 11.318 49.748C11.351 49.747 11.387 49.747 11.423 49.747C11.46 49.747 11.497 49.748 11.534 49.748C11.571 49.748 11.608 49.748 11.644 49.748C11.682 49.748 11.72 49.748 11.757 49.748C11.797 49.748 11.837 49.748 11.878 49.748C11.919 49.748 11.96 49.748 12.002 49.748C12.045 49.748 12.088 49.748 12.131 49.748C12.176 49.748 12.221 49.748"
/> </svg>